<?xml version="1.0" encoding="UTF-8" standalone="no"?>
<svg width="46px" height="40px" viewBox="0 0 46 40" version="1.1" xmlns="http://www.w3.org/2000/svg" xmlns:xlink="http://www.w3.org/1999/xlink">
    <!-- Generator: Sketch 48.2 (47327) - http://www.bohemiancoding.com/sketch -->
    <title>noun_1375678_cc</title>
    <desc>Created with Sketch.</desc>
    <defs></defs>
    <g id="Page-1" stroke="none" stroke-width="1" fill="none" fill-rule="evenodd">
        <g id="noun_1375678_cc" transform="translate(23.000000, 20.000000) rotate(90.000000) translate(-23.000000, -20.000000) translate(3.000000, -4.000000)" fill="#000000" fill-rule="nonzero">
            <g id="Group" transform="translate(0.000000, 0.637820)">
                <path d="M20.000445,0.36218 C19.244595,0.38118 18.490775,0.67648 18.000445,1.11216 L1.000445,16.11218 C-0.271565,17.35268 -0.296755,19.18408 0.750445,20.36218 C1.797635,21.5403 3.822345,21.6594 5.000445,20.61218 L17.000445,10.01841 L17.000445,43.3622 C17.000445,45.019 18.343645,46.3622 20.000445,46.3622 C21.657345,46.3622 23.000445,45.019 23.000445,43.3622 L23.000445,10.01841 L35.000445,20.61218 C36.178545,21.6594 38.171945,21.5117 39.250445,20.36218 C40.375755,19.16278 40.178545,17.15938 39.000445,16.11218 L22.000445,1.11216 C21.401165,0.57916 20.804115,0.3685 20.000445,0.36218 Z" id="Shape"></path>
            </g>
        </g>
    </g>
</svg>